<mxfile host="app.diagrams.net" modified="2023-08-14T15:08:58.690Z" agent="Mozilla/5.0 (X11; Linux x86_64) AppleWebKit/537.36 (KHTML, like Gecko) Chrome/108.0.0.0 Safari/537.36" etag="6T5mNpXx4ZUopo7_N3CG" version="21.6.8" type="github">
  <diagram name="Page-1" id="9C_Do2eMEISJ7ZcNxne7">
    <mxGraphModel dx="880" dy="463" grid="1" gridSize="10" guides="1" tooltips="1" connect="1" arrows="1" fold="1" page="1" pageScale="1" pageWidth="850" pageHeight="1100" math="0" shadow="0">
      <root>
        <mxCell id="0" />
        <mxCell id="1" parent="0" />
        <mxCell id="M8TQpOFUzZvc0KPkwWRo-1" value="" style="ellipse;whiteSpace=wrap;html=1;" vertex="1" parent="1">
          <mxGeometry x="360" y="200" width="120" height="80" as="geometry" />
        </mxCell>
      </root>
    </mxGraphModel>
  </diagram>
</mxfile>
